<?xml version="1.0" encoding="utf-8"?>
<!-- Generator: Adobe Illustrator 24.2.3, SVG Export Plug-In . SVG Version: 6.00 Build 0)  -->
<svg version="1.1" id="Layer_1" xmlns="http://www.w3.org/2000/svg" xmlns:xlink="http://www.w3.org/1999/xlink" x="0px" y="0px"
	 viewBox="0 0 512 157" style="enable-background:new 0 0 512 157;" xml:space="preserve">
<style type="text/css">
	.st0{fill:none;}
	.st1{fill:#E62852;}
	.st2{fill:#FF696B;}
	.st3{enable-background:new    ;}
</style>
<rect class="st0" width="512" height="157"/>
<polygon class="st1" points="87.7,137.7 120.2,28.6 73.7,28.6 41.3,137.7 "/>
<polygon class="st1" points="103.1,137.7 135.6,28.6 182,28.6 149.5,137.7 "/>
<polygon class="st2" points="149.5,137.7 120.2,28.6 73.7,28.6 103.1,137.7 "/>
<polygon class="st2" points="87.7,137.7 58.4,28.6 11.9,28.6 41.3,137.7 "/>
<polygon class="st2" points="157.6,110.6 182,28.6 135.6,28.6 "/>
<g class="st3">
	<path class="st1" d="M211.7,106l-18.2-35.6h9.9l10.9,23.9l10-23.9h5.9l9.9,23.9L251,70.4h9.9L242.7,106h-5.8l-9.7-23.2l-9.7,23.2
		H211.7z"/>
	<path class="st1" d="M272.5,63.1c-1,0-1.8-0.2-2.6-0.7s-1.4-1.1-1.9-1.9c-0.5-0.8-0.7-1.7-0.7-2.7c0-1,0.2-1.8,0.7-2.6
		c0.5-0.8,1.1-1.4,1.9-1.9s1.7-0.7,2.6-0.7c1,0,1.8,0.2,2.6,0.7s1.4,1.1,1.9,1.9c0.5,0.8,0.7,1.7,0.7,2.6c0,1-0.2,1.9-0.7,2.7
		c-0.5,0.8-1.1,1.4-1.9,1.9S273.4,63.1,272.5,63.1z M268.1,106V70.4h8.7V106H268.1z"/>
	<path class="st1" d="M290.2,106V70.4h8.7v4.3c1.2-1.6,2.9-2.9,4.9-3.9c2.1-1,4.4-1.5,7-1.5c2.7,0,5.1,0.6,7.2,1.8
		c2.1,1.2,3.6,2.8,4.8,5c1.1,2.1,1.7,4.7,1.7,7.6V106h-8.7V85.4c0-3-0.7-5.3-2.2-6.9c-1.5-1.6-3.5-2.4-6.1-2.4
		c-1.8,0-3.3,0.4-4.6,1.1c-1.3,0.7-2.3,1.7-3,2.9c-0.7,1.2-1,2.6-1,4.1V106H290.2z"/>
</g>
<g class="st3">
	<path class="st1" d="M352.3,107.1c-3.2,0-6.2-0.8-8.9-2.4c-2.7-1.6-4.8-3.9-6.4-6.7c-1.6-2.9-2.3-6.1-2.3-9.8
		c0-3.6,0.8-6.9,2.3-9.7s3.7-5.1,6.3-6.7c2.7-1.6,5.7-2.5,9.2-2.5c2.7,0,5.3,0.6,7.6,1.7c2.3,1.2,4.2,2.8,5.6,4.8V46.1h8.7V106h-8.7
		v-5.7c-1.6,2.1-3.5,3.8-5.8,5C357.5,106.5,355,107.1,352.3,107.1z M354.8,99.7c2.2,0,4.1-0.5,5.7-1.5s3-2.3,3.9-4.1
		c1-1.7,1.4-3.7,1.4-5.9s-0.5-4.2-1.4-6c-1-1.8-2.3-3.1-3.9-4.1c-1.7-1-3.6-1.5-5.7-1.5c-2.1,0-4,0.5-5.7,1.5c-1.7,1-3,2.4-3.9,4.1
		c-1,1.8-1.4,3.8-1.4,6c0,2.2,0.5,4.2,1.4,5.9c0.9,1.7,2.2,3.1,3.9,4.1C350.7,99.2,352.6,99.7,354.8,99.7z"/>
</g>
<g class="st3">
	<path class="st1" d="M387.4,124.1l10.5-21.3L381,70.4h9.9l12.1,24l10.7-24h9.9l-26.2,53.7H387.4z"/>
</g>
<g class="st3">
	<path class="st1" d="M434.8,107.1c-1.1,0-2-0.3-2.9-0.8c-0.9-0.5-1.6-1.2-2.1-2.1c-0.5-0.9-0.8-1.8-0.8-2.9c0-1.1,0.3-2,0.8-2.9
		c0.5-0.9,1.2-1.5,2.1-2.1c0.9-0.5,1.8-0.8,2.9-0.8c1.1,0,2,0.3,2.9,0.8c0.9,0.5,1.5,1.2,2.1,2.1c0.5,0.9,0.8,1.8,0.8,2.9
		c0,1-0.3,2-0.8,2.9c-0.5,0.9-1.2,1.6-2.1,2.1C436.8,106.9,435.8,107.1,434.8,107.1z"/>
	<path class="st1" d="M452.7,125.1c-1.4,0-2.9-0.2-4.4-0.5c-1.5-0.3-2.7-0.8-3.6-1.5l2.6-7c1.1,0.8,2.3,1.2,3.6,1.2
		c2.9,0,4.4-2,4.4-6.1V70.4h8.7v42.3c0,3.9-1,7-3,9.2C459.1,124.1,456.3,125.1,452.7,125.1z M459.7,63c-1,0-1.8-0.2-2.6-0.7
		c-0.8-0.5-1.4-1.1-1.9-1.9c-0.5-0.8-0.7-1.7-0.7-2.7c0-1,0.2-1.8,0.7-2.6c0.5-0.8,1.1-1.4,1.9-1.9c0.8-0.5,1.7-0.7,2.6-0.7
		c1,0,1.9,0.2,2.6,0.7c0.8,0.5,1.4,1.1,1.9,1.9c0.5,0.8,0.7,1.7,0.7,2.6s-0.2,1.8-0.7,2.6c-0.5,0.8-1.1,1.5-1.9,1.9
		C461.6,62.8,460.7,63,459.7,63z"/>
	<path class="st1" d="M487.3,107.1c-3,0-5.7-0.6-8-1.7s-4.2-2.7-5.7-4.9l3.8-5.6c1.4,1.8,2.9,3.2,4.6,4.2s3.4,1.5,5.2,1.5
		c1.1,0,2.1-0.2,3-0.6c0.9-0.4,1.5-1,2.1-1.8c0.5-0.8,0.8-1.7,0.8-2.8c0-1.1-0.3-2-0.9-2.6c-0.6-0.6-1.5-1.2-2.6-1.7
		c-1.2-0.5-2.6-1.1-4.4-1.8c-1.5-0.6-2.9-1.3-4.2-2.1c-1.3-0.8-2.5-1.7-3.3-2.9c-0.9-1.2-1.3-2.7-1.3-4.5c0-2.1,0.6-3.9,1.7-5.5
		c1.1-1.6,2.7-2.9,4.7-3.8c2-0.9,4.3-1.4,6.9-1.4c1.9,0,3.7,0.3,5.6,1s3.8,1.6,5.6,2.9l-3.1,5.5c-2.7-2.2-5.4-3.4-8-3.4
		c-1.6,0-2.8,0.4-3.7,1.1c-0.9,0.7-1.4,1.7-1.4,2.9c0,1,0.4,1.8,1.2,2.4s1.8,1.3,3,1.8c1.2,0.5,2.4,1,3.6,1.5c1.9,0.7,3.6,1.4,5,2.2
		c1.4,0.8,2.6,1.8,3.4,3.1c0.8,1.3,1.2,2.9,1.2,5c0,2.5-0.6,4.7-1.8,6.4c-1.2,1.8-2.9,3.1-5.1,4.1
		C492.9,106.7,490.3,107.1,487.3,107.1z"/>
</g>
</svg>
